#!OML:ASF X:\für Bonn\!DataBase\2005_08_12_Daniel\c3d\Daniel.ASF
:FULLY-SPECIFIED
:DEGREES
80
root 2.22684 17.5869 18.6937 -5.47741 -353.644 361.846
lowerback 4.72616 -0.416516 -0.321418
upperback 0.0236364 -0.681822 -4.1342
thorax -2.6757 -0.361119 -4.04497
lowerneck 3.04017 0.369339 -0.993954
upperneck 6.60415 0.464723 0.400373
head 1.52585 0.217183 0.29066
rclavicle -1.14301e-015 -1.59028e-014
rhumerus 16.9003 16.4898 -66.9028
rradius 83.5288
rwrist 0.669686
rhand -27.443 19.4817
rfingers 7.12502
rthumb -0.847922 -10.4964
lclavicle -1.14301e-015 -1.59028e-014
lhumerus -52.378 50.3311 44.518
lradius 15.7011
lwrist -52.5484
lhand -10.9957 -3.91373
lfingers 7.12502
lthumb 15.0246 25.5211
rfemur 6.17521 17.1245 18.8277
rtibia 19.9867
rfoot -24.8148 -20.5531
rtoes -13.0882
lfemur -0.547748 -17.0287 -22.8075
ltibia 28.5806
lfoot -21.2249 5.98708
ltoes -14.5373
81
root 2.22574 17.5878 18.6911 -5.43777 -353.621 361.821
lowerback 4.67278 -0.310177 -0.20189
upperback 0.0039571 -0.534744 -4.22076
thorax -2.65805 -0.28978 -4.21385
lowerneck 3.06975 0.254459 -0.877512
upperneck 6.63201 0.310628 0.451213
head 1.5308 0.143773 0.286368
rclavicle 1.33683e-014 -1.66979e-014
rhumerus 19.3194 15.7107 -66.117
rradius 81.5308
rwrist 0.814141
rhand -26.8222 19.0299
rfingers 7.12502
rthumb -0.248366 -10.9497
lclavicle 1.33683e-014 -1.66979e-014
lhumerus -50.6651 49.1312 46.405
lradius 15.9463
lwrist -50.8436
lhand -11.0438 -4.03841
lfingers 7.12502
lthumb 14.9783 25.3999
rfemur 6.13133 17.1392 18.8471
rtibia 19.9732
rfoot -24.8417 -20.5735
rtoes -13.0832
lfemur -0.609754 -17.0175 -22.7518
ltibia 28.5777
lfoot -21.2066 5.94554
ltoes -14.5427
82
root 2.22471 17.5887 18.6881 -5.42055 -353.594 361.809
lowerback 4.64887 -0.201649 -0.0931562
upperback -0.00900899 -0.385696 -4.30121
thorax -2.64867 -0.217235 -4.37033
lowerneck 3.08259 0.140533 -0.833195
upperneck 6.66318 0.154429 0.551749
head 1.53968 0.0684313 0.309494
rclavicle -6.90777e-015 -1.19271e-014
rhumerus 21.7249 14.9374 -65.413
rradius 79.3676
rwrist 1.01785
rhand -26.0692 18.5782
rfingers 7.12502
rthumb 0.478949 -11.401
lclavicle -6.90777e-015 -1.19271e-014
lhumerus -49.005 47.8223 48.2903
lradius 16.2058
lwrist -49.0354
lhand -11.1011 -4.19241
lfingers 7.12502
lthumb 14.9231 25.25
rfemur 6.11396 17.096 18.8465
rtibia 19.9502
rfoot -24.816 -20.5656
rtoes -13.0836
lfemur -0.647192 -17.0367 -22.7271
ltibia 28.5821
lfoot -21.1945 5.92025
ltoes -14.4794
83
root 2.22509 17.5893 18.6859 -5.38568 -353.546 361.799
lowerback 4.59808 -0.092036 0.0291223
upperback -0.0250516 -0.234122 -4.39087
thorax -2.62629 -0.14352 -4.54429
lowerneck 3.09775 0.0169487 -0.778762
upperneck 6.69865 -0.0139919 0.640448
head 1.54971 -0.012925 0.327227
rclavicle 2.36554e-014 2.06736e-014
rhumerus 24.0567 14.1678 -64.7707
rradius 77.0999
rwrist 1.19151
rhand -25.1489 18.1776
rfingers 7.12502
rthumb 1.36775 -11.7978
lclavicle 2.36554e-014 2.06736e-014
lhumerus -47.5728 46.6097 49.8885
lradius 16.4563
lwrist -47.4722
lhand -11.129 -4.38426
lfingers 7.12502
lthumb 14.8962 25.0602
rfemur 6.08087 17.0547 18.8372
rtibia 19.9339
rfoot -24.7918 -20.5758
rtoes -13.1231
lfemur -0.701668 -17.0525 -22.7017
ltibia 28.5825
lfoot -21.1764 5.88725
ltoes -14.4849
84
root 2.22445 17.5903 18.6837 -5.35954 -353.493 361.787
lowerback 4.54575 0.0216989 0.167486
upperback -0.0273891 -0.0759255 -4.49235
thorax -2.58725 -0.0663495 -4.74009
lowerneck 3.10679 -0.112183 -0.721049
upperneck 6.71299 -0.191194 0.759166
head 1.5543 -0.0980934 0.35363
rclavicle 2.28602e-015 -1.11319e-014
rhumerus 26.3864 13.4246 -64.1451
rradius 74.6892
rwrist 1.32896
rhand -24.0874 17.8428
rfingers 7.12502
rthumb 2.39295 -12.1235
lclavicle 2.28602e-015 -1.11319e-014
lhumerus -46.3894 45.6764 51.0724
lradius 16.6213
lwrist -46.3688
lhand -11.1768 -4.6464
lfingers 7.12502
lthumb 14.8501 24.8014
rfemur 6.06791 17.0488 18.8444
rtibia 19.9095
rfoot -24.8034 -20.6024
rtoes -12.9901
lfemur -0.754433 -17.0892 -22.6772
ltibia 28.5899
lfoot -21.1592 5.86697
ltoes -14.4861
85
root 2.22511 17.5908 18.6815 -5.32234 -353.438 361.778
lowerback 4.48767 0.136497 0.317783
upperback -0.0390849 0.0840432 -4.59453
thorax -2.55313 0.0115008 -4.94352
lowerneck 3.0989 -0.246942 -0.68254
upperneck 6.76456 -0.376051 0.872416
head 1.57391 -0.187529 0.381591
rclavicle -5.96354e-015 -4.77083e-015
rhumerus 28.6158 12.7536 -63.5411
rradius 72.2067
rwrist 1.4633
rhand -22.9266 17.6177
rfingers 7.12502
rthumb 3.51397 -12.3331
lclavicle -5.96354e-015 -4.77083e-015
lhumerus -45.4325 44.9683 51.9284
lradius 16.7033
lwrist -45.6253
lhand -11.2775 -4.9646
lfingers 7.12502
lthumb 14.7532 24.4904
rfemur 6.03742 16.9742 18.8238
rtibia 19.8852
rfoot -24.784 -20.5854
rtoes -12.989
lfemur -0.814788 -17.1351 -22.6563
ltibia 28.5976
lfoot -21.1608 5.84007
ltoes -14.4342
86
root 2.22574 17.5917 18.6794 -5.29859 -353.364 361.752
lowerback 4.444 0.25344 0.509794
upperback -0.043917 0.248632 -4.7113
thorax -2.51796 0.0912806 -5.18656
lowerneck 3.0589 -0.389448 -0.636183
upperneck 6.82512 -0.571544 0.992265
head 1.60218 -0.281819 0.410203
rclavicle -7.7526e-015 1.43125e-014
rhumerus 30.7701 12.13 -62.9222
rradius 69.6387
rwrist 1.53855
rhand -21.7749 17.5071
rfingers 7.12502
rthumb 4.62614 -12.4224
lclavicle -7.7526e-015 1.43125e-014
lhumerus -44.4681 44.2417 52.742
lradius 16.7759
lwrist -44.9374
lhand -11.3262 -5.26207
lfingers 7.12502
lthumb 14.7062 24.1963
rfemur 6.03009 16.9233 18.837
rtibia 19.8521
rfoot -24.7646 -20.6136
rtoes -13.0221
lfemur -0.871169 -17.1662 -22.6176
ltibia 28.6135
lfoot -21.1461 5.7957
ltoes -14.3845
87
root 2.2263 17.5919 18.6777 -5.28205 -353.298 361.726
lowerback 4.3988 0.373662 0.690583
upperback -0.0395672 0.417631 -4.81716
thorax -2.47034 0.173957 -5.41187
lowerneck 3.01403 -0.529168 -0.599712
upperneck 6.87845 -0.76362 1.11158
head 1.62924 -0.374546 0.440216
rclavicle -1.15295e-014 4.13472e-014
rhumerus 32.8522 11.6136 -62.1918
rradius 67.0858
rwrist 1.56131
rhand -20.6343 17.4279
rfingers 7.12502
rthumb 5.72742 -12.4747
lclavicle -1.15295e-014 4.13472e-014
lhumerus -43.5411 43.5352 53.5253
lradius 16.8306
lwrist -44.2948
lhand -11.3869 -5.55127
lfingers 7.12502
lthumb 14.6478 23.9114
rfemur 6.02675 16.8643 18.8482
rtibia 19.8237
rfoot -24.7563 -20.6228
rtoes -13.0175
lfemur -0.914157 -17.198 -22.5839
ltibia 28.6269
lfoot -21.1354 5.74583
ltoes -14.3789
88
root 2.22718 17.5925 18.6762 -5.25301 -353.208 361.716
lowerback 4.35363 0.48756 0.858848
upperback -0.0513348 0.576918 -4.92216
thorax -2.43883 0.251605 -5.62875
lowerneck 2.97696 -0.672113 -0.609418
upperneck 6.95306 -0.962265 1.25472
head 1.66258 -0.471144 0.485289
rclavicle 1.48095e-014 1.59028e-015
rhumerus 34.8213 11.1759 -61.4115
rradius 64.4965
rwrist 1.6102
rhand -19.5614 17.3857
rfingers 7.12502
rthumb 6.76322 -12.4862
lclavicle 1.48095e-014 1.59028e-015
lhumerus -42.7919 42.9852 54.1165
lradius 16.8871
lwrist -43.9105
lhand -11.4597 -5.85742
lfingers 7.12502
lthumb 14.5776 23.6103
rfemur 6.02496 16.8071 18.8389
rtibia 19.7844
rfoot -24.7628 -20.6322
rtoes -12.949
lfemur -0.972949 -17.2718 -22.5726
ltibia 28.6483
lfoot -21.1247 5.73161
ltoes -14.3846
